<svg xmlns="http://www.w3.org/2000/svg" width="280.814" height="331.863" viewBox="0 0 280.814 331.863"><defs><style>.a{fill:#fff;}.b{fill:#28f6ff;}.c{fill:#ffda7a;opacity:0.61;}.d{fill:#e8697f;}.e{fill:none;stroke:#000;stroke-miterlimit:10;stroke-width:4px;}.f{fill:rgba(255,168,205,0.76);}</style></defs><g transform="translate(0.098 0.139)"><g transform="translate(1.76 1.33)"><g transform="translate(27.165 0)"><path class="a" d="M186.631,2.862l4.792-1.532L197.354,4.1l11.892,3.245,20.932,2.037,6.293,14.782,5.607,20.321,2.641,9.417,6.089,8.874,11.055,12.767L274.7,90.122l7.033,14.345,2.641,10.436-2.686,7.493-3.788,1.758-6.074.875-7.674-.838-1.879,1.434-1.388,9.138,1.743,9.689,6.172,8.421,2.128,4.407-2.739,7.3-2.792,4.792,10.059,6.014v7.546l-3.018,1.509-6.037,1.509-3.32,11.734-.189,6.006L266.413,212l3.758,9.085-.377,11.651-4.15,6.7-9.357,5.75-19.091,6.5-14.043,2.935-15.507,4.6-10.67,8.233-6.791,14.337-1.743,16.789-.943,13.786-4.686,10.76-4.7,4.693-11.787,1.826L149.257,323.1l-21.709-10.081L86.461,292.349l-37.9-23.022-10.8-7.916,86.777-106.4,40.747-95.832,21.128-33.956.755-20.374" transform="translate(-37.76 -1.33)"/></g><g transform="translate(242.975 42.008)"><path class="b" d="M351.31,95.876l4.625-2.709,2.535-9-2.264-11.319-.755-7.546-2.392-6.708L350.925,57l-5.788.626L336.5,59.7l-2.173,2.581-6.844,1.4-3.72.106,1.509,2.264,6.036,14.337,3.879-.174-.105-12.654,2.747-2.709,7.3-2.55,4.867.649,2.437,3.1.754,13.3-.988,13.8-.89,2.717h0" transform="translate(-323.76 -57)"/></g><g transform="translate(254.294 47.29)"><path class="c" d="M338.76,69.282l2.747-2.709,7.3-2.55L352.342,64l2.558,3.275,1.969,14.782-.377,11.915-1.5,3.622-4.128,6.24-2.294,1.668-3.78-4.5-3.765-4.55-.875-3.094-1.388-7.267v-16.8h0" transform="translate(-338.76 -64)"/></g><g transform="translate(230.902 158.213)"><path class="d" d="M307.76,225.337l12.828-12.828L325.115,211l4.528.755s2.264,1.509,1.509,3.018-2.264,4.882-1.509,6.037,5.282,5.282,6.037,6.037,1.509,1.509,1.509,4.528-.754,3.773-2.264,3.773-8.912-.324-8.912-.324l-15.054-4.9-2.445-1.57Z" transform="translate(-307.76 -211)"/></g><path class="e" d="M323.76,63.755a30.516,30.516,0,0,0,10.564-1.509c1.509-.755.694-2.068,3.018-3.018,4.007-1.63,11.673-2.739,13.582-2.264,6.037,1.509,7.221,23.716,6.633,31.474s-12.669,15.31-12.669,15.31" transform="translate(-80.785 -14.956)"/><path class="e" d="M341.024,96.4s-2.264-5.161-2.264-19.619V69.234c0-2.264,9.153-6.248,13.582-5.282,2.362.513,2.407,2.943,3.018,5.282.8,3.018,1.509,8.3,1.509,17.355,0,15.092-8.3,18.865-8.3,18.865" transform="translate(-84.466 -16.662)"/><path class="f" d="M255.3,117.45c3.773-.755,9.523.143,11.319-.755,8.225-4.112-6.587-23.218-10.7-27.331S236.435,69.912,232.662,63.12s-4.527-15.846-6.791-24.147-5.282-21.883-9.81-24.147-9.81.755-25.927-7.689C179.856-1.087,177.8,3.026,177.8,3.026V7.138L173,14.073l-3.728-1.509-5.418-.815-2.505,7.727L145.7,20.683l-8.61-2.837-1.509,1.917.106,5.418L138.7,37.812l-2.052,6.338-9.387,8.406L120.237,60.6l5.969,16,2.264,8.67-4.686,9.055-15.627,13.311-7.848,4.324-8.851,2.075-8.2,1.9-14.013-.37-13.907-3.4-8.3-4.527L36.8,100.54l-4.859-4.973L19.251,97.974l-9.81,4.407-4.324,3.433-1.849,4.844.34,8.383L4.673,128.2,1.76,135.56l.181,5.2L7.8,152.916,21.56,167.486,35.716,180.08,36.757,184l3.486,24L36.3,217.508l-17,18.11-2.581,7.546,5.6,11.1,28.025,22.4s94.036,39.238,101.582,41.5,13.582,1.441,17.657-6.791,4.1-36.974,8.217-45.222,6.98-9.659,20.909-15.907,30.976-4.7,40.747-8.768,16.45-8.217,16.45-16.442c0-4.112-8.225-16.442-8.225-20.555v-12.33c0-4.112-24.667-8.225-24.667-12.337s8.225-12.33,12.33-16.442c2.264-2.264,5.222-5.939,7.87-8.195,2.226-1.894,8.912-1.985,9.055-3.773.158-2-3.018-5.282-4.527-9.81s-1.509-6.791-1.509-12.073S251.526,118.2,255.3,117.45Z" transform="translate(-1.76 -1.494)"/><path class="e" d="M68.9,157.218s20.562,16.442,0,28.78c-10.911,6.542-25.294-.807-36.974-9.764-3.132-2.392-6.037-4.89-8.693-7.274-6.037-5.516-10.511-10.4-11.862-11.741-4.143-4.112-12.39-16.45-8.255-24.667s0-8.225,0-20.562,18.321-11.885,18.5-12.33-18.5-4.082-18.5-4.082c17.687,6.089,28.787,0,28.787,0s16.442,20.555,45.222,20.555,32.892-12.368,45.23-20.555-1.8-33.119-1.8-33.119,10.021-16.223,15.529-18.865-.951-20.215-.951-20.215-.445-5.939,3.667-5.939,4.112,4.112,12.337,4.112,12.345-4.128,12.345-8.225,4.112,0,8.225.4,4.112-4.527,5.4-8.617,6.942-4.112,15.16,0,28.78,4.112,28.78,4.112S233.373,33.889,233.373,46.2s28.78,36.974,32.892,45.23,12.337,20.555,8.225,28.78-12.337,4.112-20.562,4.112-19.7,9.742-23.475,9.742-10.564-3.773-10.564-3.773" transform="translate(-1.815 -1.503)"/><g transform="translate(198.651 52.572)"><path class="c" d="M282.081,73.867l14.194-1.954L310.1,71l2.535,3.441,1.834,7.516.641,11.3-1.1,16.352-3.909,7.418-2.136,6.165L301.8,129.1l-8.549,2.9-12.2-.762-5.908-1.381-2.3-2.377-2.98-8.693-3.75-18.653L265.02,87.8l3.441-6.082,7.682-6.2,5.939-1.66,14.194-1.954-14.194,1.954-5.939,1.66h0" transform="translate(-265.02 -71)"/></g><g transform="translate(85.268 46.988)"><path class="b" d="M282.277,80.5l-4.143,4.075-.543-4.437-1.834-7.546-2.535-3.411-6.791.513-18.284,1.751-10.564,3.773-8.549,9.055-.536,9.809,2.875,14,3.237,16.073-8.927-18-8.3-9.81-7.742-2.015-94.881,8.051s13.583-3.773,22.637-8.3,9.719-8.225,9.719-8.225l77.058-8.376,15.4-9.357L250.585,63.6h11.7l14.714,4.075Z" transform="translate(-114.76 -63.6)"/></g><path class="e" d="M328.345,164.1s-4.112,12.33,0,20.555,8.225,8.225,8.225,12.337-4.113,8.217-4.113,12.307c-6.55,0-20.925,5.222-26.5,7.342a.521.521,0,0,1-.543-.853L320.158,201.1c4.1-4.112,16.442,0,16.442,0" transform="translate(-76.247 -41.277)"/><path class="e" d="M332.821,224s8.225,4.112,8.225,8.225,0,8.225-4.112,8.225-30.183-8.927-30.183-8.927" transform="translate(-76.611 -55.978)"/><path class="e" d="M262.848,243.435s-4.113,8.225-4.113,16.442,24.675,32.892-12.33,45.23c-12.141,5.2-16.45,4.112-32.892,8.217s-20.562,12.337-20.562,12.337-8.217,8.225-8.217,28.78-4.112,24.667-8.225,28.78-16.442,4.113-16.442,4.113h0C44.238,335.961,18.575,310.789,21.91,297.5c2.467-9.938,21.664-15.318,23.06-33.511.86-11.19-4.95-27.92-4.95-27.92h0" transform="translate(-6.637 -58.94)"/><path class="e" d="M156.05,85.981l78.114-8.225S246.5,69.531,254.727,65.4s30.138,0,30.138,0" transform="translate(-39.626 -16.605)"/><path class="e" d="M283.222,90.964s-2.06-6.633-4.18-.755-2.128,22.3-2.128,22.3-4.075,16.412-12.33,20.525-24.667,4.112-28.78,0-12.337-24.667-16.45-28.78-12.33-4.113-12.33-4.113l-94.564,8.225" transform="translate(-28.928 -22.546)"/><path class="e" d="M315.595,89.836a63.32,63.32,0,0,1-1.245-10.142c0-4.112-4.1-8.225-4.1-8.225s-24.675,0-32.892,4.112S265,83.807,265,92.025,273.225,129,273.225,129" transform="translate(-66.364 -18.544)"/></g></g></svg>