<svg xmlns="http://www.w3.org/2000/svg" width="616.359" height="826.186" viewBox="0 0 616.359 826.186"><defs><style>.a{fill:#fff;}.b{fill:#28f6ff;}.c{fill:#ffda7a;opacity:0.61;}.d{fill:#e8697f;}.e{fill:none;}.e,.h,.j{stroke:#000;stroke-miterlimit:10;stroke-width:2px;}.f{fill:#ffcbe4;}.g{fill:#71f2ff;}.h{fill:#d8c75a;}.i,.j{fill:#ffef88;}</style></defs><g transform="translate(0.005 0.28)"><g transform="translate(0 0)"><g transform="translate(5.303)"><path class="a" d="M403.108,3.408l-6.5-2.078L388.56,5.088l-16.136,4.4-28.4,2.764-8.539,20.057-7.607,27.572-3.583,12.778L316.031,84.7l-15,17.323-17.416,19.781-9.542,19.463-3.584,14.16,3.645,10.167,5.14,2.386,8.242,1.188,10.423-1.136,2.549,1.945,1.874,12.4L300,195.523l-8.375,11.426-2.887,5.979,3.717,9.911,3.788,6.5-13.648,8.16v10.238l4.1,2.048,8.191,2.048,4.5,15.921.256,8.15-4.771,11.273L289.759,299.5l.512,15.808L295.9,324.4l12.7,7.8,25.9,8.815L353.554,345l21.04,6.235,14.477,11.17,9.215,19.453,2.365,22.781,1.28,18.706,6.368,14.6,6.368,6.368L430.66,446.8l23.159-8.877,29.456-13.679L539.034,396.2l51.417-31.238,14.651-10.74L487.361,209.857,432.073,79.828,403.405,33.755,402.382,6.111" transform="translate(-270.49 -1.33)"/></g><g transform="translate(0 56.998)"><path class="b" d="M566.216,109.749l-6.286-3.676-3.44-12.214L559.561,78.5l1.024-10.238,3.245-9.1,2.9-2.16,7.853.85L586.3,60.665l2.949,3.5,9.286,1.9,5.048.143-2.048,3.072-8.191,19.453-5.263-.236.143-17.17L584.5,67.658,574.592,64.2l-6.6.881-3.307,4.208-1.024,18.05L565,106.063l1.218,3.686h0" transform="translate(-556.49 -57)"/></g><g transform="translate(7.167 64.164)"><path class="c" d="M596.062,71.167l-3.727-3.676-9.911-3.461L577.633,64l-3.471,4.443L571.49,88.5,572,104.667l2.048,4.914,5.6,8.467,3.1,2.263,5.13-6.112,5.109-6.174,1.188-4.2,1.884-9.86v-22.8h0" transform="translate(-571.49 -64)"/></g><g transform="translate(23.548 214.67)"><path class="d" d="M580.42,230.453l-17.405-17.405L556.871,211l-6.143,1.024s-3.072,2.048-2.048,4.1,3.072,6.624,2.048,8.191-7.167,7.167-8.191,8.191-2.048,2.048-2.048,6.143,1.024,5.119,3.072,5.119,12.1-.44,12.1-.44l20.405-6.645,3.327-2.13Z" transform="translate(-540.49 -211)"/></g><path class="e" d="M602.525,66.218a41.4,41.4,0,0,1-14.334-2.048c-2.048-1.024-.942-2.805-4.1-4.1-5.437-2.212-15.839-3.717-18.429-3.072-8.191,2.048-9.8,32.179-8.989,42.7s17.18,20.774,17.18,20.774" transform="translate(-555.428 -0.006)"/><path class="e" d="M592.991,108.03s3.071-7,3.071-26.62V71.172c0-3.072-12.409-8.477-18.429-7.167-3.2.7-3.266,3.993-4.1,7.167-1.085,4.1-2.047,11.262-2.047,23.548,0,20.477,11.262,25.6,11.262,25.6" transform="translate(-564.323 0.16)"/><path class="f" d="M253.167,158.649c-5.119-1.024-12.921.195-15.358-1.024-11.16-5.58,8.938-31.5,14.518-37.084s26.436-26.395,31.555-35.609,6.143-21.5,9.214-32.763,7.167-29.692,13.31-32.763,13.31,1.024,35.179-10.433c13.945-11.16,16.74-5.58,16.74-5.58v5.58l6.5,9.409,5.058-2.048,7.361-1.106,3.379,10.484L401.87,27.35l11.692-3.85,2.048,2.6-.143,7.351-4.1,17.139,2.785,8.6L426.893,70.6l9.532,10.894-8.1,21.716-3.072,11.764,6.358,12.286,21.2,18.081,10.648,5.867,12.01,2.816L486.6,156.6l19.013-.5,18.869-4.618,11.262-6.143,13.883-9.634,6.594-6.747,17.221,3.266,13.31,5.979,5.867,4.658,2.508,6.573-.461,11.375-1.444,12.43,3.952,9.983-.246,7.054-7.945,16.494-18.675,19.77-19.207,17.088-1.413,5.314-4.73,32.568,5.355,12.9,23.047,24.572,3.512,10.238-7.607,15.01L531.263,374.68s-127.591,53.24-137.83,56.312-18.378,1.956-23.948-9.215-5.58-50.169-11.16-61.359-9.44-13.1-28.371-21.572-41.978-6.379-55.288-11.9-22.32-11.15-22.32-22.31c0-5.58,11.16-22.31,11.16-27.89v-16.74c0-5.58,33.469-11.16,33.469-16.74s-11.15-16.73-16.73-22.31c-3.072-3.072-7.085-8.058-10.679-11.119-3.072-2.57-12.092-2.693-12.286-5.119-.215-2.713,4.1-7.167,6.143-13.31s2.048-9.215,2.048-16.382S258.286,159.672,253.167,158.649Z" transform="translate(-220.404 -1.314)"/><path class="e" d="M515.232,212.594s-27.9,22.31,0,39.05c14.8,8.877,34.319-1.1,50.168-13.249,4.249-3.246,8.191-6.634,11.795-9.87,8.252-7.484,14.262-14.109,16.095-15.931,5.58-5.58,16.73-22.32,11.16-33.47s0-11.16,0-27.9-24.859-16.126-25.1-16.73,25.146-5.539,25.146-5.539c-23.989,8.262-39.049,0-39.049,0s-22.32,27.89-61.369,27.89-44.629-16.74-61.359-27.89S445.15,84.02,445.15,84.02s-13.6-22.013-21.071-25.6,1.3-27.429,1.3-27.429.594-8.058-4.986-8.058-5.58,5.58-16.74,5.58-16.73-5.58-16.73-11.16-5.58,0-11.16.543-5.58-6.143-7.32-11.692-9.409-5.58-20.569,0-39.06,5.559-39.06,5.559-16.74,33.47-16.74,50.168S253.025,112.1,247.445,123.3s-16.73,27.89-11.16,39.049,16.74,5.58,27.9,5.58,26.722,13.238,31.842,13.238,14.334-5.119,14.334-5.119" transform="translate(-229.477 -1.313)"/><g transform="translate(39.275 71.331)"><path class="c" d="M542.564,74.891,523.3,72.239,504.548,71l-3.44,4.669-2.488,10.2-.87,15.337,1.495,22.187,5.3,10.064,2.9,8.365,8.365,8.017,11.6,3.932,16.555-1.034,8.017-1.874,3.123-3.225,4.044-11.795,5.089-25.309,1.474-16.73-4.669-8.252-10.423-8.406-8.058-2.252L523.3,72.239l19.259,2.652,8.058,2.252h0" transform="translate(-497.75 -71)"/></g><g transform="translate(33.787 63.755)"><path class="g" d="M347.49,86.534l5.621,5.529.737-6.02L356.336,75.8l3.44-4.628,9.214.7L393.8,74.248l14.334,5.119,11.6,12.286.727,13.31-3.87,18.972L412.2,145.743l12.081-24.4,11.262-13.31,10.5-2.734,128.738,10.924s-18.429-5.119-30.715-11.262S530.881,93.8,530.881,93.8L426.326,82.439l-20.9-12.7L390.491,63.6h-15.88l-19.965,5.529Z" transform="translate(-347.49 -63.6)"/></g><path class="e" d="M549.1,164.1s5.58,16.73,0,27.889-11.16,11.16-11.16,16.74,5.611,11.15,5.611,16.7c8.887,0,28.391,7.085,35.957,9.962a.7.7,0,0,0,.737-1.157l-19.955-19.955c-5.58-5.58-22.32,0-22.32,0" transform="translate(-514.38 2.551)"/><path class="e" d="M550.61,224s-11.16,5.58-11.16,11.16,0,11.16,5.58,11.16,40.954-12.112,40.954-12.112" transform="translate(-521.441 3.98)"/><path class="e" d="M259.677,246.062s5.58,11.16,5.58,22.31S231.788,313,281.987,329.74c16.474,7.054,22.32,5.58,44.629,11.15s27.869,16.74,27.869,16.74,11.15,11.16,11.15,39.05,5.58,33.47,11.16,39.049,22.32,5.58,22.32,5.58h0C556.264,371.606,591.1,337.45,586.6,319.471c-3.348-13.484-29.395-20.784-31.289-45.469-1.167-15.184,6.716-37.882,6.716-37.882h0" transform="translate(-230.508 4.269)"/><path class="e" d="M563.611,93.978,457.623,82.818s-16.74-11.16-27.889-16.76-40.954,0-40.954,0" transform="translate(-344.806 0.154)"/><path class="e" d="M345.19,92.1s2.8-9,5.672-1.024,2.887,30.255,2.887,30.255,5.58,22.31,16.73,27.89,33.47,5.58,39.049,0,16.74-33.47,22.32-39.049,16.73-5.58,16.73-5.58l128.308,11.16" transform="translate(-313.451 0.731)"/><path class="e" d="M497.75,96.39a86.408,86.408,0,0,0,1.679-13.76c0-5.58,5.58-11.16,5.58-11.16s33.47,0,44.619,5.58,16.74,11.16,16.74,22.31-11.16,50.168-11.16,50.168" transform="translate(-459.13 0.343)"/></g><g transform="translate(17.405 265.862)"><path class="h" d="M482.253,574.889s15.573-57.11,10.382-72.693-31.145-57.1-31.145-62.291,20.764-5.191,36.336-20.764S530.016,377,530.016,377l1.474,5.949.614,15.04.911,12.511,3.143,8.733,5.119,16.126L487.014,583.817l-4.761-8.928h0" transform="translate(-414.322 -258.234)"/><path class="i" d="M.49,815.925v-8.191l6.143-18.091,14-46.749,7.5-29.016L31.717,700.4l5.805-21.337,4.74-18.05,3.276-15.562,2.119-15.7,5.385-17.242L61.921,591.7l6.5-14.047L83.6,544.431l10.064-24.4V505.7L91.1,494.775l-4.607-7.5L78.3,477.032l-4.1-5.119-1.024-3.072,2.048-5.119,15.982-14.549,16.781-17.19,12.419-12.542,25.852-22.9,29.4-25.412,39.756-33.019,24.46-18.337,26.681-16.719,28.9-14.8,32.159-13.566L369.074,261l8.191,11.283L388.619,293l6.051,26.364,1.024,24.572,9.542,10.883,37.176,44.22,20.211,26.958,21.327,30.04L506.166,490.1,520.91,514.73l15.2,27.685,10.085,19.6L558.26,592l8.938,28.821,6.645,30.265,6.286,27.357,5.324,32.016,4.321,31.3,3.5,29.866,2.549,24.316,2.078,18.276,1.536,6.829Z" transform="translate(-0.49 -261)"/><g transform="translate(1.024 114.241)"><path class="a" d="M443.6,813.264H418l10.515-39.234,8.416-29.794,10.73-38.906,5.754-21.716,5.8-22.9,4.709-21.327,2.7-14.887,4.433-14.334,6.235-15.593,8.59-19.555,13.986-29.456,5.764-13.658,4.853-14.764,1.71-10v-9.214l-8.713-16.3-7.689-9.051-5.119-6.389,8.129-9.532,15.8-15.962,30.357-28.924,27.122-24.716L588.46,372.58s-72.171,78.242-74.219,90.529,11.262,18.429,13.31,35.835-34.811,83.955-47.1,120.814S443.6,813.264,443.6,813.264Z" transform="translate(-418 -372.58)"/></g><path class="e" d="M598.952,816.437c-5.908-57.1-16.259-180.432-51.909-254.354C488.684,441.125,396.538,344,396.538,344s0-31.145-5.191-46.718S370.563,261,370.563,261s-62.291,15.573-119.4,51.909S74.672,463.414,74.672,468.636,95.436,484.2,95.436,510.163,53.909,598.419,48.718,634.755,2,811.246,2,811.246" transform="translate(-1.549 -261)"/><path class="j" d="M410.382,440.32s-41.005,13.668-54.673,27.337-36.449,50.169-36.449,50.169" transform="translate(-137.804 -256.724)"/><path class="j" d="M127.91,502.62s27.337,27.337,31.893,40.954,4.556,36.449,4.556,36.449" transform="translate(304.131 -255.238)"/><path class="j" d="M348.825,525.4s-45.561-22.781-72.9-22.781a150.393,150.393,0,0,0-50.117,9.112" transform="translate(19.431 -255.238)"/><path class="j" d="M418.539,564.92s-13.668,63.786-22.78,77.454S359.31,742.619,359.31,742.619" transform="translate(-186.966 -253.753)"/><path class="j" d="M235.852,582.72s-13.668,31.893-9.112,54.673,27.337,54.684,27.337,54.684" transform="translate(114.18 -253.328)"/><path class="j" d="M330.761,351.367s-27.337-4.556-40.954,0-68.342,36.449-72.9,45.561" transform="translate(46.607 -258.893)"/><path class="j" d="M379.265,413.62s-13.812,11.651-19.955,18.818-13.31,21.5-13.31,21.5" transform="translate(-134.064 -257.361)"/></g></g></svg>